HIERARCHY
ROOT Hips
{
	OFFSET 0.00000 0.00000 0.00000
	CHANNELS 6 Xposition Yposition Zposition Zrotation Yrotation Xrotation 
	JOINT LHipJoint
	{
		OFFSET 0 0 0
		CHANNELS 3 Zrotation Yrotation Xrotation
		JOINT LeftHip
		{
			OFFSET 1.70593 -1.62653 0.87602
			CHANNELS 3 Zrotation Yrotation Xrotation
			JOINT LeftKnee
			{
				OFFSET 2.32330 -6.38322 0.00000
				CHANNELS 3 Zrotation Yrotation Xrotation
				JOINT LeftAnkle
				{
					OFFSET 2.45016 -6.73177 0.00000
					CHANNELS 3 Zrotation Yrotation Xrotation
					JOINT LeftToe
					{
						OFFSET 0.13029 -0.35798 1.96980
						CHANNELS 3 Zrotation Yrotation Xrotation
						End Site
						{
							OFFSET 0.00000 -0.00000 1.01270
						}
					}
				}
			}
		}
	}
	JOINT RHipJoint
	{
		OFFSET 0 0 0
		CHANNELS 3 Zrotation Yrotation Xrotation
		JOINT RightHip
		{
			OFFSET -1.80599 -1.62652 0.87602
			CHANNELS 3 Zrotation Yrotation Xrotation
			JOINT RightKnee
			{
				OFFSET -2.45375 -6.74162 0.00000
				CHANNELS 3 Zrotation Yrotation Xrotation
				JOINT RightAnkle
				{
					OFFSET -2.45828 -6.75406 0.00000
					CHANNELS 3 Zrotation Yrotation Xrotation
					JOINT RightToe
					{
						OFFSET -0.13801 -0.37917 1.88456
						CHANNELS 3 Zrotation Yrotation Xrotation
						End Site
						{
							OFFSET -0.00000 -0.00000 0.97281
						}
					}
				}
			}
		}
	}
	JOINT lowerback
	{
		OFFSET 0 0 0
		CHANNELS 3 Zrotation Yrotation Xrotation
		JOINT Chest
		{
			OFFSET 0.01003 2.00576 -0.14267
			CHANNELS 3 Zrotation Yrotation Xrotation
			JOINT Chest2
			{
				OFFSET 0.00908 2.01191 0.01660
				CHANNELS 3 Zrotation Yrotation Xrotation
				JOINT lowerneck
				{
					OFFSET 0 0 0
					CHANNELS 3 Zrotation Yrotation Xrotation
					JOINT Neck
					{
						OFFSET -0.05849 1.60301 0.18934
						CHANNELS 3 Zrotation Yrotation Xrotation
						JOINT Head
						{
							OFFSET 0.01775 1.59435 -0.07960
							CHANNELS 3 Zrotation Yrotation Xrotation
							End Site
							{
								OFFSET 0.01210 1.70732 -0.05248
							}
						}
					}
				}
				JOINT LeftCollar
				{
					OFFSET 0 0 0
					CHANNELS 3 Zrotation Yrotation Xrotation
					JOINT LeftShoulder
					{
						OFFSET 3.15315 1.26460 0.30667
CHANNELS 3 Zrotation Xrotation Yrotation
						JOINT LeftElbow
						{
OFFSET 0 -4.976940 -0.000000
CHANNELS 3 Zrotation Xrotation Yrotation
							JOINT LeftWrist
							{
OFFSET 0 -3.143910 -0.000000
CHANNELS 3 Zrotation Xrotation Yrotation
								JOINT lhand
								{
									OFFSET 0 0 0
CHANNELS 3 Zrotation Xrotation Yrotation
									JOINT LFingers
									{
OFFSET 0 -0.593580 -0.000000
CHANNELS 3 Zrotation Xrotation Yrotation
										End Site
										{
OFFSET 0 -0.478560 -0.000000
										}
									}
								}
								JOINT LThumb
								{
OFFSET 0 0.000000 0.000000
CHANNELS 3 Zrotation Xrotation Yrotation
									End Site
									{
OFFSET 0 -0.485870 0.485870
									}
								}
							}
						}
					}
				}
				JOINT RightCollar
				{
					OFFSET 0 0 0
					CHANNELS 3 Zrotation Yrotation Xrotation
					JOINT RightShoulder
					{
						OFFSET -3.25568 1.35581 0.18982
CHANNELS 3 Zrotation Xrotation Yrotation
						JOINT RightElbow
						{
OFFSET 0 -4.904730 0.000000
CHANNELS 3 Zrotation Xrotation Yrotation
							JOINT RightWrist
							{
OFFSET 0 -3.216210 -0.000040
CHANNELS 3 Zrotation Xrotation Yrotation
								JOINT rhand
								{
									OFFSET 0 0 0
CHANNELS 3 Zrotation Xrotation Yrotation
									JOINT RFingers
									{
OFFSET 0 -0.623530 -0.000000
CHANNELS 3 Zrotation Xrotation Yrotation
										End Site
										{
OFFSET 0 -0.502700 -0.000000
										}
									}
								}
								JOINT RThumb
								{
OFFSET 0 0.000000 0.000000
CHANNELS 3 Zrotation Xrotation Yrotation
									End Site
									{
OFFSET 0 -0.510380 0.510380
									}
								}
							}
						}
					}
				}
			}
		}
	}
}
MOTION
Frames: 12
Frame Time: 0.008333333333333333
8.851492 16.259793 -2.990094 -1.810060 1.180148 5.798512 0.000000 0.000000 0.000000 -18.308060 -2.187686 -18.942074 13.080671 18.810904 69.375610 -0.048451 5.030380 1.449133 0.919533 -6.106536 -17.094809 0.000000 0.000000 0.000000 24.944724 12.020520 -25.867239 -4.050476 -12.227044 36.540345 -0.172977 11.727717 -10.489878 -0.034211 -1.193461 3.281262 2.720779 1.922298 1.911399 2.238017 2.709651 -1.655783 0.661531 1.321805 -2.756203 -2.715031 -1.892549 -9.713023 2.317906 -2.470315 12.761721 0.982871 -1.169289 5.507450 0.000000 0.000000 0.000000 -0.101077 -1.273305 -35.471895 19.627212 -30.183035 5.346257 21.665423 -24.530449 12.708365 0.000000 0.000000 0.000000 -7.125000 0.000000 0.000000 -3.880701 16.360644 -2.636415 0.000000 0.000000 0.000000 3.169907 6.855367 -6.433909 -9.322312 -15.671813 -1.286507 -28.801702 30.726582 36.129445 0.000000 0.000000 0.000000 7.125000 0.000000 0.000000 7.242613 69.649623 -4.293656
8.852931 16.278779 -2.868771 -1.909862 1.165809 5.889254 0.000000 0.000000 0.000000 -18.080091 -2.438872 -19.990209 13.154017 18.837054 69.603123 -0.060930 4.976034 0.622471 0.821421 -5.706658 -15.954945 0.000000 0.000000 0.000000 25.143102 11.934462 -25.338064 -4.004116 -12.165697 36.320986 -0.186494 11.883985 -10.734970 -0.030898 -1.130719 3.108594 2.751422 1.966000 1.824375 2.249875 2.767587 -1.714348 0.656417 1.349921 -2.766400 -2.698403 -1.899654 -9.606680 2.283782 -2.481454 12.851367 0.969359 -1.176853 5.517025 0.000000 0.000000 0.000000 -0.242948 -0.704237 -34.997735 18.967903 -29.373657 5.017663 21.715840 -23.835822 12.500594 0.000000 0.000000 0.000000 -7.125000 0.000000 0.000000 -3.838037 16.576996 -2.588797 0.000000 0.000000 0.000000 3.002870 6.384400 -4.268487 -9.597461 -16.106552 -1.361898 -28.817069 29.059918 36.234670 0.000000 0.000000 0.000000 7.125000 0.000000 0.000000 7.311267 69.761207 -4.348232
8.854852 16.296066 -2.746585 -2.002204 1.135915 5.949189 0.000000 0.000000 0.000000 -17.841186 -2.690287 -20.985181 13.200261 18.853257 69.746338 -0.069450 4.969090 -0.141081 0.553902 -4.667263 -12.981109 0.000000 0.000000 0.000000 25.339703 11.860737 -24.760573 -3.960826 -12.107928 36.115077 -0.204224 12.031042 -11.021450 -0.025530 -1.027198 2.823690 2.790871 2.014067 1.745724 2.248791 2.831512 -1.770147 0.632728 1.380701 -2.777333 -2.619605 -1.886357 -9.421801 2.203704 -2.468157 12.844078 0.933998 -1.173455 5.480975 0.000000 0.000000 0.000000 -0.368680 -0.109361 -34.471758 18.369038 -28.621629 4.727539 21.607001 -22.953137 12.049623 0.000000 0.000000 0.000000 -7.125000 0.000000 0.000000 -3.896496 17.067759 -2.586729 0.000000 0.000000 0.000000 2.857783 5.934266 -2.182211 -9.881036 -16.552253 -1.441731 -29.051148 27.399496 35.569516 0.000000 0.000000 0.000000 7.125000 0.000000 0.000000 6.367612 69.165445 -3.702187
8.857421 16.312166 -2.624645 -2.026315 1.109869 5.984182 0.000000 0.000000 0.000000 -17.682300 -2.934230 -21.926822 13.227603 18.862816 69.830987 -0.073496 4.916375 -0.906133 0.329290 -3.525970 -9.761151 0.000000 0.000000 0.000000 25.464829 11.716454 -24.166774 -3.912436 -12.042732 35.883576 -0.218083 12.213869 -11.278087 -0.023853 -0.996024 2.737884 2.787904 2.062827 1.662287 2.215248 2.892685 -1.790265 0.600494 1.411191 -2.748983 -2.508728 -1.887332 -9.298775 2.090808 -2.472846 12.844037 0.881256 -1.179117 5.457318 0.000000 0.000000 0.000000 -0.474704 0.469922 -33.941666 17.808807 -27.908123 4.461307 21.402437 -22.022176 11.525366 0.000000 0.000000 0.000000 -7.125000 0.000000 0.000000 -4.022446 17.643666 -2.618261 0.000000 0.000000 0.000000 2.722427 5.398118 -0.313580 -10.171120 -17.005761 -1.525455 -29.096263 25.967031 35.110262 0.000000 0.000000 0.000000 7.125000 0.000000 0.000000 5.886290 68.716792 -3.352173
8.860770 16.326843 -2.503000 -1.968447 1.088446 5.989205 0.000000 0.000000 0.000000 -17.619557 -3.169196 -22.804385 13.232232 18.864392 69.845270 -0.072166 4.808668 -1.672985 0.156230 -2.262247 -6.245480 0.000000 0.000000 0.000000 25.504081 11.487398 -23.553381 -3.857917 -11.968613 35.621327 -0.227293 12.439675 -11.498870 -0.026611 -1.051773 2.891294 2.733977 2.112421 1.573097 2.142705 2.950553 -1.767512 0.557992 1.441331 -2.673436 -2.359307 -1.905456 -9.250068 1.938481 -2.499145 12.852705 0.807629 -1.195664 5.448552 0.000000 0.000000 0.000000 -0.557048 1.030472 -33.406627 17.294995 -27.240901 4.223780 21.082862 -21.033212 10.913056 0.000000 0.000000 0.000000 -7.125000 0.000000 0.000000 -4.229488 18.321870 -2.690164 0.000000 0.000000 0.000000 2.598764 4.758623 1.293555 -10.469026 -17.468650 -1.613857 -28.914338 24.808454 34.898393 0.000000 0.000000 0.000000 7.125000 0.000000 0.000000 5.960459 68.444889 -3.357836
8.863931 16.338034 -2.383004 -1.884265 1.087244 6.007250 0.000000 0.000000 0.000000 -17.606522 -3.413511 -23.687187 13.217037 18.859060 69.798220 -0.066621 4.637251 -2.352504 0.056646 -1.536024 -4.225093 0.000000 0.000000 0.000000 25.510611 11.206130 -22.986920 -3.802105 -11.892010 35.351314 -0.230910 12.717191 -11.685762 -0.036088 -1.203704 3.309771 2.647829 2.158341 1.489605 2.065883 3.002911 -1.739521 0.529243 1.469280 -2.597179 -2.283718 -1.931802 -9.269412 1.877912 -2.538006 12.914899 0.773046 -1.214925 5.470441 0.000000 0.000000 0.000000 -0.628895 1.561326 -32.905646 16.765490 -26.543754 3.984166 20.899117 -20.170687 10.516753 0.000000 0.000000 0.000000 -7.125000 0.000000 0.000000 -4.347527 18.758819 -2.726341 0.000000 0.000000 0.000000 2.456194 4.066352 2.810894 -10.778555 -17.946836 -1.707955 -28.740343 23.717699 34.670603 0.000000 0.000000 0.000000 7.125000 0.000000 0.000000 6.011985 68.159423 -3.348350
8.866837 16.344485 -2.265251 -1.764295 1.113542 6.043005 0.000000 0.000000 0.000000 -17.661089 -3.670540 -24.577112 13.174880 18.844335 69.667760 -0.055343 4.379188 -2.913251 0.056991 -1.540801 -4.238291 0.000000 0.000000 0.000000 25.472640 10.853854 -22.484287 -3.744533 -11.812030 35.070744 -0.226921 13.065035 -11.826564 -0.054704 -1.486441 4.088738 2.517862 2.199267 1.413860 1.983244 3.047776 -1.704407 0.519196 1.494249 -2.519957 -2.308539 -1.969329 -9.381306 1.942132 -2.593953 13.049890 0.791564 -1.237874 5.534021 0.000000 0.000000 0.000000 -0.686467 2.051794 -32.450981 16.214643 -25.805909 3.741715 20.900102 -19.480121 10.414217 0.000000 0.000000 0.000000 -7.125000 0.000000 0.000000 -4.344523 18.867658 -2.713931 0.000000 0.000000 0.000000 2.287911 3.302307 4.206111 -11.103892 -18.445824 -1.809802 -28.577133 22.719181 34.421158 0.000000 0.000000 0.000000 7.125000 0.000000 0.000000 6.032719 67.855509 -3.318259
8.869297 16.345437 -2.150518 -1.909537 1.081861 6.059491 0.000000 0.000000 0.000000 -17.394866 -3.822491 -25.555479 13.140372 18.832243 69.560907 -0.042167 4.062872 -3.390938 0.098197 -1.890751 -5.208538 0.000000 0.000000 0.000000 25.737450 10.648350 -21.931982 -3.683863 -11.726938 34.773287 -0.224364 13.353117 -11.952300 -0.076031 -1.765382 4.858062 2.628144 2.253962 1.420420 1.979113 3.123414 -1.684552 0.451266 1.530082 -2.496203 -2.360588 -1.978893 -9.436148 2.063017 -2.616436 13.129128 0.835547 -1.242253 5.570799 0.000000 0.000000 0.000000 -0.729262 2.507191 -31.996878 15.607422 -24.979699 3.481892 21.047278 -18.870368 10.422607 0.000000 0.000000 0.000000 -7.125000 0.000000 0.000000 -4.240818 18.846768 -2.649969 0.000000 0.000000 0.000000 2.111746 2.612064 5.796746 -11.471504 -19.005349 -1.928186 -28.790816 21.538548 34.035108 0.000000 0.000000 0.000000 7.125000 0.000000 0.000000 5.453293 67.523515 -2.966427
8.871070 16.337902 -2.040447 -2.464029 0.960709 6.046243 0.000000 0.000000 0.000000 -16.633628 -3.812297 -26.670323 13.117669 18.824216 69.490481 -0.026063 3.656669 -3.740456 0.202457 -2.773338 -7.655610 0.000000 0.000000 0.000000 26.469484 10.669330 -21.303026 -3.618412 -11.633956 34.449772 -0.224020 13.548979 -12.054786 -0.101542 -2.038467 5.612503 3.109156 2.329903 1.553982 2.096128 3.246536 -1.688246 0.294014 1.582680 -2.554957 -2.454653 -1.945305 -9.402954 2.271339 -2.587280 13.122331 0.918827 -1.217973 5.566219 0.000000 0.000000 0.000000 -0.749257 2.908470 -31.543642 14.913212 -24.017132 3.195264 21.420042 -18.385317 10.602168 0.000000 0.000000 0.000000 -7.125000 0.000000 0.000000 -3.981720 18.625690 -2.506458 0.000000 0.000000 0.000000 1.923419 2.035706 7.688932 -11.904352 -19.658289 -2.072091 -29.586085 20.076894 33.438263 0.000000 0.000000 0.000000 7.125000 0.000000 0.000000 3.947759 67.148190 -2.118118
8.876630 16.337226 -1.919354 -2.825313 0.840682 5.985015 0.000000 0.000000 0.000000 -16.150429 -3.806604 -27.554965 13.049325 18.799504 69.278151 -0.003189 3.174618 -4.283235 0.326866 -3.620859 -10.018672 0.000000 0.000000 0.000000 26.974799 10.487599 -20.621928 -3.554371 -11.542189 34.131509 -0.205865 13.929993 -12.084392 -0.128822 -2.304745 6.349046 3.464681 2.399664 1.607572 2.141244 3.351652 -1.674702 0.137549 1.628990 -2.553065 -2.516279 -1.927348 -9.295861 2.448258 -2.580883 13.098011 0.985851 -1.206108 5.543311 0.000000 0.000000 0.000000 -0.747620 3.363427 -31.002912 14.223414 -23.048099 2.918283 21.668568 -17.802752 10.785962 0.000000 0.000000 0.000000 -7.125000 0.000000 0.000000 -3.810973 18.409846 -2.417697 0.000000 0.000000 0.000000 1.758456 1.562829 9.598964 -12.380785 -20.370088 -2.235360 -30.548909 18.383342 32.640743 0.000000 0.000000 0.000000 7.125000 0.000000 0.000000 2.145412 66.601201 -1.144856
8.888844 16.348603 -1.778897 -2.847131 0.722633 5.839484 0.000000 0.000000 0.000000 -16.155748 -3.808820 -28.035141 12.900791 18.745478 68.816493 0.031581 2.559305 -5.165576 0.486678 -4.406771 -12.234127 0.000000 0.000000 0.000000 27.081767 9.949704 -19.849215 -3.492810 -11.452556 33.822473 -0.156420 14.636318 -11.985943 -0.159208 -2.559066 7.054140 3.599721 2.458566 1.520648 2.060033 3.425131 -1.630870 -0.017535 1.664252 -2.444620 -2.520909 -1.936853 -9.058925 2.570001 -2.614470 13.042902 1.024314 -1.216057 5.488202 0.000000 0.000000 0.000000 -0.707975 3.912698 -30.308456 13.541368 -22.067704 2.658249 21.698807 -17.048852 10.977195 0.000000 0.000000 0.000000 -7.125000 0.000000 0.000000 -3.795460 18.203199 -2.425134 0.000000 0.000000 0.000000 1.634547 1.271769 11.540349 -12.933799 -21.185303 -2.432650 -31.806131 16.282341 31.490637 0.000000 0.000000 0.000000 7.125000 0.000000 0.000000 -0.178440 65.752596 0.047949
8.898816 16.357476 -1.642399 -2.927813 0.610212 5.752231 0.000000 0.000000 0.000000 -16.070822 -3.851872 -28.608604 12.743520 18.687101 68.326483 0.071602 1.881182 -6.073243 0.648699 -5.130561 -14.286237 0.000000 0.000000 0.000000 27.247552 9.495739 -19.142075 -3.431462 -11.362482 33.512783 -0.114189 15.250893 -11.919137 -0.186388 -2.778227 7.662184 3.753755 2.521770 1.461291 2.008729 3.509277 -1.638510 -0.155457 1.703228 -2.404954 -2.539150 -1.964502 -8.814840 2.664110 -2.667347 13.012971 1.055006 -1.238063 5.440144 0.000000 0.000000 0.000000 -0.709068 4.506274 -29.421435 12.894334 -21.128980 2.417358 21.603412 -16.042197 11.142857 0.000000 0.000000 0.000000 -7.125000 0.000000 0.000000 -3.867443 18.034687 -2.486135 0.000000 0.000000 0.000000 1.483953 0.998182 13.339496 -13.509963 -22.025909 -2.644027 -32.967726 14.503530 30.682876 0.000000 0.000000 0.000000 7.125000 0.000000 0.000000 -2.187415 65.236831 1.073221
